<svg width="41" height="31" viewBox="0 0 41 31" fill="none" xmlns="http://www.w3.org/2000/svg">
<path d="M4.32663 28.6153C6.48995 26.864 8.55025 25.1128 10.5075 23.4645C17.2035 17.5927 24.3116 12.1329 31.3166 6.67309C33.892 4.7158 36.4673 2.6555 39.0427 0.595198C39.5578 0.183137 40.0729 -0.331937 40.794 0.286153C41.206 0.698214 41 1.3163 40.1759 2.03741C35.6432 5.64294 31.0075 9.24847 26.4749 12.854C19.9849 18.1078 13.598 23.3615 7.10804 28.6153C6.38693 29.1304 5.76884 29.7485 5.04774 30.2635C3.81156 31.0877 2.88442 30.7786 2.47236 29.3364C1.95729 26.9671 1.44221 24.5977 1.03015 22.2284C0.61809 20.0651 0.309045 17.9017 0 15.7384C0 15.2233 0 14.7083 0.103015 14.2962C0.20603 14.0902 0.515075 13.7811 0.824121 13.7811C1.03015 13.7811 1.3392 13.9872 1.44221 14.1932C1.64824 14.5022 1.64824 14.9143 1.75126 15.3264C2.57538 19.447 3.29648 23.5676 4.1206 27.6882C4.1206 27.8942 4.22362 28.2032 4.32663 28.6153Z" fill="black"/>
</svg>
