<svg width="28" height="23" viewBox="0 0 28 23" fill="none" xmlns="http://www.w3.org/2000/svg">
<path d="M2.95477 21.4291C4.43216 20.1176 5.8392 18.8061 7.17588 17.5718C11.7487 13.1746 16.603 9.08592 21.3869 4.99726C23.1457 3.53151 24.9045 1.98862 26.6633 0.445724C27.0151 0.137146 27.3668 -0.248577 27.8593 0.214291C28.1407 0.522869 28 0.985737 27.4372 1.52575C24.3417 4.22581 21.1759 6.92587 18.0804 9.62593C13.6482 13.5603 9.28643 17.4947 4.85427 21.4291C4.36181 21.8148 3.9397 22.2776 3.44724 22.6634C2.60302 23.2805 1.96985 23.0491 1.68844 21.9691C1.33668 20.1947 0.984925 18.4204 0.703518 16.6461C0.422111 15.0261 0.211055 13.406 0 11.786C0 11.4003 0 11.0145 0.0703518 10.706C0.140704 10.5517 0.351759 10.3202 0.562814 10.3202C0.703518 10.3202 0.914573 10.4745 0.984925 10.6288C1.12563 10.8602 1.12563 11.1688 1.19598 11.4774C1.75879 14.5632 2.25126 17.649 2.81407 20.7348C2.81407 20.889 2.88442 21.1205 2.95477 21.4291Z" fill="black"/>
</svg>
